:SAMPLES-PER-SECOND 30
:FULLY-SPECIFIED
:DEGREES
328
root  75.4651 40.2211 2.39864 -74.12 -88.7748 73.1355
RightUpLeg  0.50787 -10.2574 -8.9332
RightLeg  8.00738 -5.77211 2.34335
RightFoot  -5.10867 -0.163899 2.371
RightToes  0.00048216 0.542163 -0.142577
Spine  6.01494 0.943455 0.226043
Spine1  4.30284 0.951751 0.456714
HEad  -1.78714 2.1581 1.19784
LeftShoulder1  1.17618 -3.48967 -9.39859
LeftArm  -16.2281 19.6793 -4.13725
LeftForeArm  18.6551 -6.44305 -1.18988
LeftHand  -0.25398 0.0180481 5.50724
RightShoulder  0.28919 -1.34537 5.62027
RightArm  -21.906 -10.1494 4.11468
RightForeArm  -6.44886 4.53417 2.61491
RightHand  -3.60345 10.951 -25.639
LeftUpLeg  0.952885 4.54802 -1.51329
LeftLeg  6.06474 14.7748 -3.1026
LeftFoot  -5.56201 -0.198175 4.58845
LeftToes  1.06247e-005 4.65855e-005 -8.18501e-006
329
root  75.341 40.214 2.45033 -84.4825 -88.8162 83.6244
RightUpLeg  0.586423 -10.2346 -9.03257
RightLeg  7.88491 -5.5031 2.36588
RightFoot  -5.22992 -0.168728 2.49391
RightToes  0.00048216 0.542163 -0.142577
Spine  5.98519 0.981871 0.385528
Spine1  4.22108 1.06102 0.169
HEad  -1.91915 2.22763 1.29015
LeftShoulder1  1.13942 -3.33626 -9.21971
LeftArm  -16.4517 19.8177 -4.21379
LeftForeArm  19.0498 -6.93109 -1.16302
LeftHand  -0.25398 0.0180481 5.50724
RightShoulder  0.290455 -1.3418 5.67805
RightArm  -21.8156 -9.91127 4.08799
RightForeArm  -6.65318 4.60196 2.68497
RightHand  -3.58626 10.7777 -25.7809
LeftUpLeg  1.06909 4.47692 -1.60376
LeftLeg  5.98724 15.0903 -3.12297
LeftFoot  -5.73471 -0.192361 4.63385
LeftToes  1.06247e-005 4.65855e-005 -8.18501e-006
330
root  75.2286 40.1864 2.49991 -84.5281 -88.8624 83.7726
RightUpLeg  0.69666 -10.2863 -9.13279
RightLeg  7.89107 -5.44806 2.40903
RightFoot  -5.49985 -0.182538 2.8441
RightToes  0.00048216 0.542163 -0.142577
Spine  6.18141 0.871147 0.397336
Spine1  3.94824 0.94106 0.205505
HEad  -2.19327 2.42342 1.23344
LeftShoulder1  1.12155 -3.13528 -9.4761
LeftArm  -16.8246 20.0703 -4.14977
LeftForeArm  19.2523 -7.64905 -1.10151
LeftHand  -0.25398 0.0180481 5.50724
RightShoulder  0.30374 -1.24776 5.70952
RightArm  -21.9185 -9.57848 4.15213
RightForeArm  -5.94441 4.99436 2.71722
RightHand  -3.60223 10.8583 -25.7712
LeftUpLeg  1.0535 4.51651 -1.6949
LeftLeg  6.21273 15.0451 -2.93275
LeftFoot  -6.21627 -0.164045 4.50017
LeftToes  1.06247e-005 4.65855e-005 -8.18501e-006
331
root  75.1258 40.1389 2.53928 -80.7115 -89.0359 79.9837
RightUpLeg  0.747232 -10.4482 -9.10729
RightLeg  8.23582 -5.32023 2.42888
RightFoot  -6.07887 -0.185014 3.12246
RightToes  0.00048216 0.542163 -0.142577
Spine  6.48193 0.771874 0.504566
Spine1  3.80455 0.836985 0.237304
HEad  -2.8297 2.58404 1.11993
LeftShoulder1  1.13605 -3.08303 -9.8666
LeftArm  -17.42 20.2866 -4.42433
LeftForeArm  19.7837 -8.51438 -1.00711
LeftHand  -0.25398 0.0180481 5.50724
RightShoulder  0.300795 -1.30755 5.97991
RightArm  -22.1698 -9.35957 4.44425
RightForeArm  -5.93636 6.00127 2.87145
RightHand  -3.80966 11.4413 -26.28
LeftUpLeg  0.927562 4.87963 -1.63502
LeftLeg  6.90143 14.554 -2.54136
LeftFoot  -7.13163 -0.101713 3.92791
LeftToes  1.06247e-005 4.65855e-005 -8.18501e-006
332
root  75.0279 40.0683 2.55602 -102.878 -89.2495 102.154
RightUpLeg  0.392413 -10.7973 -8.77801
RightLeg  9.2169 -4.47269 2.1538
RightFoot  -7.07243 -0.173311 3.36455
RightToes  0.00048216 0.542163 -0.142577
Spine  6.89527 0.92486 0.71478
Spine1  3.66307 1.03219 0.0356593
HEad  -3.65757 2.43452 1.2214
LeftShoulder1  1.15042 -3.08257 -10.1099
LeftArm  -18.1931 20.4686 -5.62678
LeftForeArm  21.3232 -9.80592 -0.985897
LeftHand  -0.25398 0.0180481 5.50724
RightShoulder  0.285393 -1.51805 6.74128
RightArm  -22.141 -9.36037 5.06244
RightForeArm  -8.12791 7.52777 3.33963
RightHand  -4.35621 12.6003 -28.005
LeftUpLeg  0.703814 5.63699 -1.30729
LeftLeg  8.01985 13.959 -2.14176
LeftFoot  -8.52088 -0.0203146 2.87978
LeftToes  1.06247e-005 4.65855e-005 -8.18501e-006
333
root  74.9338 39.9696 2.55035 -159.669 -88.6815 158.992
RightUpLeg  -0.932469 -11.6032 -8.10471
RightLeg  11.5296 -2.61564 1.20129
RightFoot  -8.13252 -0.167542 4.01872
RightToes  0.00048216 0.542163 -0.142577
Spine  7.48516 1.38236 0.708836
Spine1  3.32442 1.51788 -0.205976
HEad  -4.25553 2.22472 1.46374
LeftShoulder1  1.16619 -2.91311 -10.8968
LeftArm  -19.6277 20.8277 -7.33007
LeftForeArm  22.9525 -11.8467 -0.964569
LeftHand  -0.25398 0.0180481 5.50724
RightShoulder  0.325535 -1.40461 7.98611
RightArm  -21.5303 -9.60578 6.02722
RightForeArm  -11.2102 9.42585 4.06125
RightHand  -5.07494 13.9577 -30.2211
LeftUpLeg  0.458025 6.53676 -0.809523
LeftLeg  9.31753 13.8488 -1.96636
LeftFoot  -10.3015 0.0482268 1.43502
LeftToes  1.06247e-005 4.65855e-005 -8.18501e-006
334
root  74.8361 39.8518 2.53231 -173.056 -86.7251 172.362
RightUpLeg  -3.53332 -11.7361 -7.35493
RightLeg  15.8653 -1.28981 -0.259563
RightFoot  -8.68545 -0.179178 5.16143
RightToes  0.00048216 0.542163 -0.142577
Spine  8.28258 1.99688 0.305477
Spine1  2.96362 2.12595 -0.438375
HEad  -4.45821 2.5603 1.58847
LeftShoulder1  1.27501 -2.78112 -13.2023
LeftArm  -21.3549 21.5051 -8.74318
LeftForeArm  24.7345 -14.3873 -1.14604
LeftHand  -0.25398 0.0180481 5.50724
RightShoulder  0.482798 -0.667775 9.67257
RightArm  -20.2768 -10.0543 7.40694
RightForeArm  -12.2728 11.8696 4.73643
RightHand  -5.41578 14.6104 -31.1435
LeftUpLeg  0.466497 7.24172 -0.434952
LeftLeg  10.4355 14.6885 -2.02877
LeftFoot  -12.1749 0.0719372 -0.145086
LeftToes  1.06247e-005 4.65855e-005 -8.18501e-006
335
root  74.7131 39.7319 2.5067 -173.665 -84.2734 172.711
RightUpLeg  -6.95807 -9.43034 -7.00125
RightLeg  21.8097 -2.49296 -1.36191
RightFoot  -8.62304 -0.206512 6.21346
RightToes  0.00048216 0.542163 -0.142577
Spine  9.31546 2.51476 -0.174509
Spine1  2.8042 2.69241 -0.998304
HEad  -4.4255 3.6316 1.80091
LeftShoulder1  1.53356 -3.00454 -16.7646
LeftArm  -23.9484 22.2308 -9.79131
LeftForeArm  25.5616 -16.4685 -1.30832
LeftHand  -0.25398 0.0180481 5.50724
RightShoulder  0.756808 0.468731 11.94
RightArm  -18.3323 -10.6368 9.29645
RightForeArm  -10.1548 14.9964 5.05853
RightHand  -4.95731 13.8012 -29.7646
LeftUpLeg  0.901425 7.63349 -0.313867
LeftLeg  11.3425 16.3958 -2.06822
LeftFoot  -13.8484 0.0510788 -1.48905
LeftToes  1.06247e-005 4.65855e-005 -8.18501e-006
336
root  74.5373 39.6533 2.47516 -174.819 -82.1831 173.448
RightUpLeg  -10.2828 -8.21231 -6.70773
RightLeg  27.1133 -3.13282 -1.95695
RightFoot  -8.28166 -0.233573 6.63356
RightToes  0.00048216 0.542163 -0.142577
Spine  10.4565 2.67545 -0.267803
Spine1  2.79977 2.99569 -1.83325
HEad  -4.29461 4.9072 2.46405
LeftShoulder1  1.87509 -3.43126 -20.5316
LeftArm  -26.1898 22.2246 -11.522
LeftForeArm  25.442 -17.0422 -1.2517
LeftHand  -0.25398 0.0180481 5.50724
RightShoulder  1.11622 1.64209 14.8642
RightArm  -16.0458 -11.2429 11.6312
RightForeArm  -5.74137 18.3022 4.9791
RightHand  -3.92016 11.6793 -26.6242
LeftUpLeg  1.73127 7.76246 -0.226182
LeftLeg  11.8082 18.2095 -1.9956
LeftFoot  -15.0202 0.0104543 -2.48894
LeftToes  1.06247e-005 4.65855e-005 -8.18501e-006
337
root  74.2966 39.6224 2.43208 -176.307 -80.9891 174.699
RightUpLeg  -13.1407 -8.94786 -6.09065
RightLeg  29.9183 -3.0841 -2.15107
RightFoot  -8.15396 -0.23728 6.52687
RightToes  0.00048216 0.542163 -0.142577
Spine  11.2655 2.38137 -0.138556
Spine1  3.01706 2.82484 -2.41738
HEad  -4.37067 5.75001 2.86797
LeftShoulder1  2.26735 -3.89866 -24.3301
LeftArm  -26.5463 20.8668 -14.1513
LeftForeArm  23.3251 -15.6718 -0.827028
LeftHand  -0.25398 0.0180481 5.50724
RightShoulder  1.53731 2.70679 18.2112
RightArm  -14.2631 -11.6203 14.286
RightForeArm  0.231571 20.7936 4.72658
RightHand  -2.83604 9.11319 -22.8428
LeftUpLeg  2.58383 7.68201 -0.0541645
LeftLeg  11.7834 19.3378 -1.92322
LeftFoot  -15.6938 -0.0334617 -3.3603
LeftToes  1.06247e-005 4.65855e-005 -8.18501e-006
338
root  73.992 39.6133 2.37848 -177.586 -80.5048 176.049
RightUpLeg  -15.5397 -10.6768 -5.2195
RightLeg  29.6924 -3.42432 -2.33858
RightFoot  -8.10842 -0.238526 6.4888
RightToes  0.00048216 0.542163 -0.142577
Spine  11.5293 1.81591 -0.134383
Spine1  3.58062 2.24381 -2.33324
HEad  -5.06025 6.59803 1.75151
LeftShoulder1  2.96632 -4.92526 -28.9972
LeftArm  -24.9487 18.3426 -16.4982
LeftForeArm  19.6573 -12.7917 -0.473187
LeftHand  -0.25398 0.0180481 5.50724
RightShoulder  1.99136 3.64184 21.5622
RightArm  -13.3469 -11.5581 17.2664
RightForeArm  6.96664 21.7458 4.43338
RightHand  -2.02922 6.97094 -19.3183
LeftUpLeg  3.2315 7.49103 0.149699
LeftLeg  11.4779 19.7987 -1.9234
LeftFoot  -16.0466 -0.06836 -4.00665
LeftToes  1.06247e-005 4.65855e-005 -8.18501e-006
339
root  73.6232 39.5865 2.31346 -178.505 -80.1452 177.051
RightUpLeg  -17.4577 -12.4249 -4.2947
RightLeg  27.0748 -4.05488 -2.4723
RightFoot  -7.84607 -0.259726 6.75049
RightToes  0.00048216 0.542163 -0.142577
Spine  11.6535 1.28319 -0.300984
Spine1  4.30558 1.58567 -1.83068
HEad  -5.74804 7.64917 0.613863
LeftShoulder1  4.29267 -7.01091 -34.6603
LeftArm  -22.5347 15.3484 -17.8291
LeftForeArm  17.0915 -9.54092 -0.801327
LeftHand  -0.25398 0.0180481 5.50724
RightShoulder  2.47159 4.5155 24.6808
RightArm  -13.2091 -11.1861 20.6024
RightForeArm  12.0818 20.7903 4.13514
RightHand  -1.58049 5.63186 -16.9411
LeftUpLeg  3.88009 7.37617 0.331508
LeftLeg  11.3112 20.2051 -1.91515
LeftFoot  -16.3393 -0.0817923 -4.12006
LeftToes  1.06247e-005 4.65855e-005 -8.18501e-006
340
root  73.1844 39.5186 2.22379 -178.974 -79.6322 177.26
RightUpLeg  -18.8139 -13.9369 -3.45038
RightLeg  23.2233 -4.05132 -2.12951
RightFoot  -7.36813 -0.287446 6.83756
RightToes  0.00048216 0.542163 -0.142577
Spine  12.1332 0.933022 -0.599062
Spine1  4.89888 1.0745 -1.27278
HEad  -6.57221 7.50996 0.635282
LeftShoulder1  6.07898 -9.6104 -40.0924
LeftArm  -19.8008 12.1154 -19.1404
LeftForeArm  17.7132 -7.09793 -1.74686
LeftHand  -0.25398 0.0180481 5.50724
RightShoulder  3.01228 5.47496 27.5178
RightArm  -14.3907 -10.7439 24.1867
RightForeArm  13.6072 17.5969 4.07764
RightHand  -1.38783 4.84158 -16.0198
LeftUpLeg  4.94926 7.39593 0.486514
LeftLeg  11.3576 20.692 -1.91298
LeftFoot  -16.8027 -0.0941785 -4.08169
LeftToes  1.06247e-005 4.65855e-005 -8.18501e-006
341
root  72.675 39.4115 2.0951 -178.397 -79.1555 176.154
RightUpLeg  -19.8223 -15.6873 -2.70112
RightLeg  19.1477 -3.04138 -1.40419
RightFoot  -6.82013 -0.302802 6.49063
RightToes  0.00048216 0.542163 -0.142577
Spine  12.9034 0.691807 -1.17146
Spine1  5.35287 0.621545 -0.636696
HEad  -8.14851 4.9116 1.41129
LeftShoulder1  7.63719 -11.6674 -43.8409
LeftArm  -16.7511 8.17615 -21.9912
LeftForeArm  22.0636 -5.96912 -3.00817
LeftHand  -0.25398 0.0180481 5.50724
RightShoulder  3.6139 6.54098 30.0128
RightArm  -17.1044 -10.1792 27.8413
RightForeArm  12.5689 12.5262 4.12475
RightHand  -1.28403 4.18082 -15.8208
LeftUpLeg  6.4666 7.42446 0.515977
LeftLeg  11.321 20.8299 -2.04516
LeftFoot  -17.4609 -0.140882 -4.5841
LeftToes  1.06247e-005 4.65855e-005 -8.18501e-006
342
root  72.0897 39.2757 1.93073 -176.382 -78.8395 173.726
RightUpLeg  -20.7588 -17.1948 -2.34057
RightLeg  15.322 -2.61527 -0.62393
RightFoot  -6.25324 -0.323548 6.31092
RightToes  0.00048216 0.542163 -0.142577
Spine  13.6215 0.44769 -1.99118
Spine1  5.66095 0.109976 0.0854273
HEad  -9.19181 1.75987 1.36107
LeftShoulder1  8.49211 -12.767 -45.5125
LeftArm  -12.7845 3.17363 -26.7446
LeftForeArm  29.9387 -6.12201 -4.66712
LeftHand  -0.25398 0.0180481 5.50724
RightShoulder  4.17806 7.50097 32.028
RightArm  -19.1819 -9.53625 31.4059
RightForeArm  11.6941 7.5559 3.62113
RightHand  -1.20839 3.72413 -15.625
LeftUpLeg  7.96484 7.39781 0.295653
LeftLeg  11.2167 20.7485 -2.23784
LeftFoot  -18.1439 -0.204312 -5.26804
LeftToes  1.06247e-005 4.65855e-005 -8.18501e-006
